<svg width="24" height="25" viewBox="0 0 24 25" fill="none" xmlns="http://www.w3.org/2000/svg">
<g clip-path="url(#clip0_41270_1238)">
<path d="M12 2.5C17.52 2.5 22 6.98 22 12.5C22 18.02 17.52 22.5 12 22.5C6.48 22.5 2 18.02 2 12.5C2 6.98 6.48 2.5 12 2.5ZM12 4.5C7.58 4.5 4 8.08 4 12.5C4 16.92 7.58 20.5 12 20.5C16.42 20.5 20 16.92 20 12.5C20 8.08 16.42 4.5 12 4.5ZM12 7.5C13.82 7.5 15.413 8.473 16.288 9.928L14.574 10.957C14.3043 10.5072 13.9213 10.1361 13.4634 9.88045C13.0055 9.62484 12.4885 9.49374 11.9641 9.50023C11.4397 9.50672 10.9262 9.65056 10.4747 9.91742C10.0232 10.1843 9.6496 10.5648 9.39107 11.0211C9.13254 11.4774 8.99815 11.9935 9.00128 12.5179C9.00442 13.0424 9.14498 13.5568 9.40895 14.01C9.67292 14.4632 10.0511 14.8392 10.5057 15.1007C10.9603 15.3621 11.4756 15.4998 12 15.5C12.5181 15.5003 13.0275 15.3664 13.4785 15.1112C13.9294 14.856 14.3065 14.4883 14.573 14.044L16.288 15.072C15.726 16.0106 14.8716 16.739 13.8559 17.1453C12.8402 17.5517 11.7192 17.6137 10.6649 17.3217C9.61058 17.0298 8.68114 16.4 8.01914 15.529C7.35713 14.6581 6.99912 13.594 7 12.5C7 9.74 9.24 7.5 12 7.5Z" fill="white"/>
</g>
<defs>
<clipPath id="clip0_41270_1238">
<rect width="24" height="24" fill="white" transform="translate(0 0.5)"/>
</clipPath>
</defs>
</svg>
