<svg width="60" height="61" viewBox="0 0 60 61" fill="none" xmlns="http://www.w3.org/2000/svg">
<g clip-path="url(#clip0_41140_1779)">
<path d="M48.5425 17.1974C51.1175 19.9324 52.5 22.9999 52.5 27.9724C52.5 36.7224 46.3575 44.5649 37.425 48.4424L35.1925 44.9974C43.53 40.4874 45.16 34.6349 45.81 30.9449C44.4675 31.6399 42.71 31.8824 40.9875 31.7224C36.4775 31.3049 32.9225 27.6024 32.9225 22.9999C32.9225 20.6792 33.8444 18.4536 35.4853 16.8127C37.1263 15.1717 39.3519 14.2499 41.6725 14.2499C44.355 14.2499 46.92 15.4749 48.5425 17.1974ZM23.5425 17.1974C26.1175 19.9324 27.5 22.9999 27.5 27.9724C27.5 36.7224 21.3575 44.5649 12.425 48.4424L10.1925 44.9974C18.53 40.4874 20.16 34.6349 20.81 30.9449C19.4675 31.6399 17.71 31.8824 15.9875 31.7224C11.4775 31.3049 7.9225 27.6024 7.9225 22.9999C7.9225 20.6792 8.84437 18.4536 10.4853 16.8127C12.1263 15.1717 14.3519 14.2499 16.6725 14.2499C19.355 14.2499 21.92 15.4749 23.5425 17.1974Z" fill="#BCC1C7"/>
</g>
<defs>
<clipPath id="clip0_41140_1779">
<rect width="60" height="60" fill="white" transform="matrix(-1 0 0 -1 60 60.5)"/>
</clipPath>
</defs>
</svg>
