<svg width="24" height="25" viewBox="0 0 24 25" fill="none" xmlns="http://www.w3.org/2000/svg">
<path d="M13.3102 20.8992C11.9879 21.1057 10.6355 20.9971 9.36308 20.5822C8.09069 20.1673 6.93425 19.4578 5.98791 18.5114C5.04156 17.5651 4.33205 16.4086 3.91713 15.1363C3.50221 13.8639 3.39361 12.5115 3.60016 11.1892C3.07889 10.1977 2.88841 9.06547 3.05657 7.95799C3.22472 6.85052 3.74269 5.82587 4.53477 5.03379C5.32684 4.24171 6.3515 3.72374 7.45897 3.55559C8.56644 3.38744 9.69867 3.57791 10.6902 4.09918C12.0125 3.89263 13.3648 4.00124 14.6372 4.41616C15.9096 4.83108 17.0661 5.54059 18.0124 6.48693C18.9588 7.43328 19.6683 8.58971 20.0832 9.8621C20.4981 11.1345 20.6067 12.4869 20.4002 13.8092C20.9214 14.8007 21.1119 15.9329 20.9437 17.0404C20.7756 18.1478 20.2576 19.1725 19.4655 19.9646C18.6735 20.7566 17.6488 21.2746 16.5413 21.4428C15.4339 21.6109 14.3016 21.4204 13.3102 20.8992ZM12.0522 17.6552H12.0122C14.8842 17.6552 16.3152 16.2692 16.3152 14.4122C16.3152 13.2142 15.7642 11.9412 13.5892 11.4542L11.6062 11.0142C10.8512 10.8422 9.98416 10.6142 9.98416 9.89918C9.98416 9.18418 10.6042 8.68618 11.7082 8.68618C13.9382 8.68618 13.7352 10.2142 14.8392 10.2142C15.4152 10.2142 15.9322 9.87218 15.9322 9.28418C15.9322 7.91418 13.7352 6.88418 11.8762 6.88418C9.85516 6.88418 7.70316 7.74318 7.70316 10.0282C7.70316 11.1262 8.09716 12.2982 10.2632 12.8412L12.9522 13.5122C13.7682 13.7142 13.9702 14.1712 13.9702 14.5842C13.9702 15.2712 13.2862 15.9422 12.0522 15.9422C9.63516 15.9422 9.97416 14.0852 8.67816 14.0852C8.09816 14.0852 7.67516 14.4832 7.67516 15.0562C7.67516 16.1702 9.02716 17.6542 12.0522 17.6542V17.6552Z" fill="#FF5300"/>
</svg>
