<svg width="162" height="27" viewBox="0 0 162 27" fill="none" xmlns="http://www.w3.org/2000/svg">
<g clip-path="url(#clip0_34717_6452)">
<path d="M149.04 16.377L152.082 18.2403L151.255 14.7628L153.962 12.4369L150.409 12.1509L149.04 8.85001V16.377ZM149.04 18.9163L142.692 22.8055L144.417 15.5472L138.769 10.6938L146.183 10.098L149.04 3.20801L151.896 10.098L159.312 10.6938L153.662 15.5472L155.388 22.8055L149.04 18.9163Z" fill="#FF5300"/>
</g>
<g clip-path="url(#clip1_34717_6452)">
<path d="M12.9598 18.9163L6.61152 22.8055L8.33736 15.5472L2.68896 10.6938L10.1032 10.098L12.9598 3.20801L15.8164 10.098L23.2316 10.6938L17.5822 15.5472L19.308 22.8055L12.9598 18.9163Z" fill="#FF5300"/>
</g>
<g clip-path="url(#clip2_34717_6452)">
<path d="M46.9798 18.9163L40.6315 22.8055L42.3574 15.5472L36.709 10.6938L44.1232 10.098L46.9798 3.20801L49.8364 10.098L57.2517 10.6938L51.6022 15.5472L53.328 22.8055L46.9798 18.9163Z" fill="#FF5300"/>
</g>
<g clip-path="url(#clip3_34717_6452)">
<path d="M80.9998 18.9163L74.6516 22.8055L76.3774 15.5472L70.729 10.6938L78.1432 10.098L80.9998 3.20801L83.8564 10.098L91.2717 10.6938L85.6222 15.5472L87.348 22.8055L80.9998 18.9163Z" fill="#FF5300"/>
</g>
<g clip-path="url(#clip4_34717_6452)">
<path d="M115.02 18.9163L108.672 22.8055L110.397 15.5472L104.749 10.6938L112.163 10.098L115.02 3.20801L117.876 10.098L125.292 10.6938L119.642 15.5472L121.368 22.8055L115.02 18.9163Z" fill="#FF5300"/>
</g>
<defs>
<clipPath id="clip0_34717_6452">
<rect width="25.92" height="26" fill="white" transform="translate(136.08 0.5)"/>
</clipPath>
<clipPath id="clip1_34717_6452">
<rect width="25.92" height="26" fill="white" transform="translate(0 0.5)"/>
</clipPath>
<clipPath id="clip2_34717_6452">
<rect width="25.92" height="26" fill="white" transform="translate(34.02 0.5)"/>
</clipPath>
<clipPath id="clip3_34717_6452">
<rect width="25.92" height="26" fill="white" transform="translate(68.04 0.5)"/>
</clipPath>
<clipPath id="clip4_34717_6452">
<rect width="25.92" height="26" fill="white" transform="translate(102.06 0.5)"/>
</clipPath>
</defs>
</svg>
