<svg width="24" height="25" viewBox="0 0 24 25" fill="none" xmlns="http://www.w3.org/2000/svg">
<g clip-path="url(#clip0_41270_825)">
<path d="M22.1618 6.1569C21.3984 6.4946 20.5888 6.71638 19.7598 6.8149C20.6336 6.29234 21.2875 5.46992 21.5998 4.5009C20.7798 4.9889 19.8808 5.3309 18.9438 5.5159C18.3144 4.84248 17.4802 4.39587 16.5708 4.24549C15.6614 4.09511 14.7277 4.24939 13.9151 4.68436C13.1024 5.11932 12.4562 5.81059 12.0769 6.6507C11.6976 7.4908 11.6066 8.43268 11.8178 9.3299C10.1549 9.24656 8.52814 8.81443 7.0431 8.06157C5.55805 7.30871 4.24794 6.25195 3.19781 4.9599C2.8261 5.59835 2.63076 6.32413 2.63181 7.0629C2.63181 8.5129 3.36981 9.7939 4.49181 10.5439C3.82782 10.523 3.17844 10.3437 2.59781 10.0209V10.0729C2.59801 11.0386 2.93218 11.9745 3.54366 12.722C4.15513 13.4694 5.00629 13.9824 5.95281 14.1739C5.33642 14.3409 4.69012 14.3656 4.06281 14.2459C4.32968 15.0771 4.84982 15.8041 5.5504 16.325C6.25099 16.8459 7.09694 17.1347 7.96981 17.1509C7.10229 17.8322 6.10899 18.3359 5.04669 18.6331C3.98439 18.9303 2.87394 19.0152 1.77881 18.8829C3.69051 20.1123 5.9159 20.765 8.18881 20.7629C15.8818 20.7629 20.0888 14.3899 20.0888 8.8629C20.0888 8.6829 20.0838 8.5009 20.0758 8.3229C20.8947 7.73107 21.6014 6.99792 22.1628 6.1579L22.1618 6.1569Z" fill="#FF5300"/>
</g>
<defs>
<clipPath id="clip0_41270_825">
<rect width="24" height="24" fill="white" transform="translate(0 0.5)"/>
</clipPath>
</defs>
</svg>
